<?xml version="1.0" encoding="UTF-8" standalone="no"?>
<svg width="700px" height="209px" viewBox="0 0 700 209" version="1.1" xmlns="http://www.w3.org/2000/svg" xmlns:xlink="http://www.w3.org/1999/xlink">
    <!-- Generator: Sketch 3.7.2 (28276) - http://www.bohemiancoding.com/sketch -->
    <title>cytonn-investments-logo</title>
    <desc>Created with Sketch.</desc>
    <defs></defs>
    <g id="Page-1" stroke="none" stroke-width="1" fill="none" fill-rule="evenodd">
        <g id="cytonn-investments-logo">
            <path d="M208.38,81 C208.38,82 208.46,83.06 208.46,84.1 C208.482008,122.5996 184.486322,157.025605 148.357623,170.327362 C112.228924,183.62912 71.6384428,172.982259 46.69,143.66 C29.8670915,142.114732 13.9563416,135.31733 1.21,124.23 C8.93229525,161.237357 35.8111802,191.313769 71.7216389,203.129743 C107.632098,214.945717 147.118477,206.706125 175.30664,181.514743 C203.494803,156.32336 216.102296,118.007356 208.38,81 L208.38,81 Z" id="Shape" fill="#A4D55D"></path>
            <path d="M65.85,4.43 C30.3489712,18.5160959 5.18577369,50.6302207 1.17550414e-14,88.47 C6.35840653,102.043582 17.5670709,112.745681 31.42,118.47 C14.4776506,76.5067489 30.651261,28.4571174 69.52,5.28 C72.8039527,3.31050715 76.207185,1.54710511 79.71,0 C74.9929348,1.15373726 70.361773,2.6339715 65.85,4.43 L65.85,4.43 Z" id="Shape" fill="#A4D55D"></path>
            <circle id="Oval" fill="#006B5A" cx="117.32" cy="84.43" r="71.85"></circle>
            <path d="M319.43,115.39 C315.29,117.46 305.98,119.68 293.85,119.68 C259.4,119.68 241.66,98.24 241.66,69.86 C241.66,35.86 265.91,16.93 296.07,16.93 C307.75,16.93 316.62,19.3 320.61,21.37 L316,39.24 C310.003129,36.7574608 303.570287,35.4994526 297.08,35.54 C279.19,35.54 265.29,46.33 265.29,68.54 C265.29,88.54 277.12,101.07 297.23,101.07 C303.627582,101.051066 309.975138,99.9418497 316,97.79 L319.43,115.39 Z" id="Shape" fill="#006B5A"></path>
            <path d="M345.45,45.9 L356.24,81.38 C357.42,85.67 358.9,90.99 359.79,94.83 L360.23,94.83 C361.23,90.99 362.45,85.52 363.48,81.38 L372.35,45.9 L396.45,45.9 L379.61,93.5 C369.26,122.18 362.31,133.71 354.18,140.96 C348.066153,146.324253 340.508907,149.770747 332.45,150.87 L327.72,131.8 C331.183915,131.138399 334.493921,129.836101 337.48,127.96 C341.297431,125.799511 344.501523,122.702107 346.79,118.96 C347.501256,118.020004 347.912494,116.887357 347.97,115.71 C347.935151,114.414765 347.592362,113.146448 346.97,112.01 L320.47,45.9 L345.47,45.9 L345.45,45.9 Z" id="Shape" fill="#006B5A"></path>
            <path d="M431.06,25.2 L431.06,45.9 L447.18,45.9 L447.18,62.46 L431.06,62.46 L431.06,88.63 C431.06,97.35 433.13,101.34 439.93,101.34 C442.159986,101.345723 444.385855,101.14824 446.58,100.75 L446.73,117.75 C443.73,118.93 438.45,119.67 432.09,119.67 C424.85,119.67 418.78,117.16 415.23,113.46 C411.1,109.18 409,102.23 409,92 L409,62.46 L399.39,62.46 L399.39,45.9 L409,45.9 L409,30.23 L431.06,25.2 Z" id="Shape" fill="#006B5A"></path>
            <path d="M530.86,81.23 C530.86,107.69 512.08,119.82 492.71,119.82 C471.57,119.82 455.3,105.92 455.3,82.56 C455.3,59.2 470.68,44.27 493.89,44.27 C516.07,44.27 530.86,59.5 530.86,81.23 L530.86,81.23 Z M478.52,82 C478.52,94.42 483.69,103.73 493.3,103.73 C502.02,103.73 507.64,95.01 507.64,82 C507.64,71.21 503.5,60.27 493.3,60.27 C482.51,60.24 478.52,71.33 478.52,82 L478.52,82 Z" id="Shape" fill="#006B5A"></path>
            <path d="M544.76,69 C544.76,60 544.46,52.29 544.17,45.94 L563.69,45.94 L564.69,55.85 L565.13,55.85 C570.158061,48.4930124 578.550401,44.1596637 587.46,44.32 C602.24,44.32 613.33,54.08 613.33,75.32 L613.33,118.2 L590.88,118.2 L590.88,78.13 C590.88,68.82 587.63,62.46 579.5,62.46 C573.29,62.46 569.59,66.75 568.12,70.89 C567.477729,72.6920196 567.175938,74.597707 567.23,76.51 L567.23,118.2 L544.76,118.2 L544.76,69 L544.76,69 Z" id="Shape" fill="#006B5A"></path>
            <path d="M631.4,69 C631.4,60 631.1,52.29 630.81,45.94 L650.33,45.94 L651.33,55.85 L651.77,55.85 C656.798061,48.4930124 665.190401,44.1596637 674.1,44.32 C688.88,44.32 699.97,54.08 699.97,75.32 L699.97,118.2 L677.53,118.2 L677.53,78.13 C677.53,68.82 674.28,62.46 666.15,62.46 C659.94,62.46 656.24,66.75 654.77,70.89 C654.127729,72.6920196 653.825938,74.597707 653.88,76.51 L653.88,118.2 L631.4,118.2 L631.4,69 L631.4,69 Z" id="Shape" fill="#006B5A"></path>
            <polygon id="Shape" fill="#006B5A" points="246.93 162.09 246.93 192.8 241.65 192.8 241.65 162.09"></polygon>
            <path d="M267.07,192.8 L267.07,162.09 L272.83,162.09 L285.93,177.63 C288.620847,180.777032 291.074261,184.119558 293.27,187.63 L293.39,187.63 C292.928127,183.439818 292.724409,179.225194 292.78,175.01 L292.78,162.09 L297.78,162.09 L297.78,192.8 L292.44,192.8 L279.44,177.22 C276.665555,173.989699 274.113048,170.57522 271.8,167 L271.62,167 C271.92,170.87 272.04,174.56 272.04,179.67 L272.04,192.8 L267.04,192.8 L267.07,192.8 Z" id="Shape" fill="#006B5A"></path>
            <path d="M326.88,192.8 L313.53,162.09 L319.23,162.09 L325.6,177.22 C327.266504,180.967051 328.735191,184.798989 330,188.7 L330.12,188.7 C331.468835,184.805094 333.027788,180.986159 334.79,177.26 L341.71,162.09 L347.35,162.09 L332.7,192.8 L326.88,192.8 L326.88,192.8 Z" id="Shape" fill="#006B5A"></path>
            <polygon id="Shape" fill="#006B5A" points="383.84 178.41 367.95 178.41 367.95 189.48 385.66 189.48 385.66 192.81 362.66 192.81 362.66 162.09 384.74 162.09 384.74 165.42 367.94 165.42 367.94 175.13 383.83 175.13 383.83 178.41"></polygon>
            <path d="M402.7,188 C405.68061,189.315194 408.902123,189.996275 412.16,190 C417.56,190 420.71,187.86 420.71,184.76 C420.71,181.89 418.53,180.25 413.01,178.65 C406.34,176.87 402.21,174.28 402.21,169.95 C402.21,165.17 407.49,161.61 415.44,161.61 C418.508785,161.523115 421.565274,162.03253 424.44,163.11 L423,166.33 C420.528485,165.346478 417.889949,164.850691 415.23,164.87 C409.65,164.87 407.53,167.38 407.53,169.47 C407.53,172.34 410.02,173.75 415.66,175.39 C422.58,177.39 426.09,179.9 426.09,184.39 C426.09,189.13 421.42,193.23 411.77,193.23 C408.194729,193.265753 404.648446,192.585737 401.34,191.23 L402.7,188 Z" id="Shape" fill="#006B5A"></path>
            <polygon id="Shape" fill="#006B5A" points="452 165.46 439.58 165.46 439.58 162.09 469.85 162.09 469.85 165.46 457.35 165.46 457.35 192.8 452 192.8"></polygon>
            <path d="M519.78,179.32 C519.48,175.04 519.11,169.89 519.17,166.06 L519,166.06 C517.6,169.66 515.91,173.49 513.84,177.73 L506.62,192.63 L502.62,192.63 L496,178 C494.200379,174.111976 492.62121,170.125661 491.27,166.06 L491.15,166.06 C491.03,169.89 490.73,175.06 490.36,179.64 L489.27,192.81 L484.27,192.81 L487.12,162.1 L493.85,162.1 L500.85,176.96 C502.408392,180.33002 503.783726,183.781709 504.97,187.3 L505.15,187.3 C506.385902,183.773039 507.824976,180.320595 509.46,176.96 L516.74,162.1 L523.47,162.1 L526,192.8 L520.84,192.8 L519.78,179.32 Z" id="Shape" fill="#006B5A"></path>
            <polygon id="Shape" fill="#006B5A" points="566.18 178.41 550.28 178.41 550.28 189.48 568 189.48 568 192.81 545 192.81 545 162.09 567.08 162.09 567.08 165.42 550.28 165.42 550.28 175.13 566.18 175.13 566.18 178.41"></polygon>
            <path d="M585.77,192.8 L585.77,162.09 L591.53,162.09 L604.63,177.63 C607.3203,180.777466 609.773683,184.11995 611.97,187.63 L612.09,187.63 C611.628153,183.439816 611.424435,179.225194 611.48,175.01 L611.48,162.09 L616.48,162.09 L616.48,192.8 L611.14,192.8 L598.14,177.22 C595.369276,173.989159 592.820131,170.574708 590.51,167 L590.33,167 C590.63,170.87 590.75,174.56 590.75,179.67 L590.75,192.8 L585.75,192.8 L585.77,192.8 Z" id="Shape" fill="#006B5A"></path>
            <polygon id="Shape" fill="#006B5A" points="644.37 165.46 631.94 165.46 631.94 162.09 662.21 162.09 662.21 165.46 649.71 165.46 649.71 192.8 644.37 192.8"></polygon>
            <path d="M676.58,188 C679.56061,189.315194 682.782123,189.996275 686.04,190 C691.44,190 694.59,187.86 694.59,184.76 C694.59,181.89 692.41,180.25 686.89,178.65 C680.22,176.87 676.09,174.28 676.09,169.95 C676.09,165.17 681.37,161.61 689.32,161.61 C692.388803,161.522861 695.44534,162.032284 698.32,163.11 L696.86,166.35 C694.388485,165.366478 691.749949,164.870691 689.09,164.89 C683.51,164.89 681.39,167.4 681.39,169.49 C681.39,172.36 683.88,173.77 689.52,175.41 C696.44,177.41 699.95,179.92 699.95,184.41 C699.95,189.15 695.28,193.25 685.63,193.25 C682.054729,193.285753 678.508446,192.605737 675.2,191.25 L676.58,188 Z" id="Shape" fill="#006B5A"></path>
        </g>
    </g>
</svg>